<svg class="icon" xmlns="http://www.w3.org/2000/svg" version="1" x="0" y="0" width="512" height="512" viewBox="0 0 512 512" enable-background="new 0 0 512 512" xml:space="preserve"><path class="icon" d="M398 307c-26 21-84 33-152 30 -67-2-115-17-132-32 -1-24-2-49-1-74 -9-5-13-17-13-27 0-12 7-22 15-17 9 5 0 0 0 0s48 27 149 27c42 0 97-6 134-25 0 0 0 0 0 0 17-9 23 32 2 44C400 259 399 284 398 307zM117 159c3-34 9-64 17-84 33-34 213-34 246 0 8 20 13 51 17 86 -27 20-84 31-150 28C182 187 136 173 117 159zM167 93c0 7 40 14 90 14s90-6 90-14 -40-14-90-14S167 86 167 93zM396 338c-37 19-91 25-133 25 -48 0-104-5-148-26 -16-8-18 30 5 43 4 21 8 38 14 50 39 44 202 44 241 0 5-11 10-28 14-48C414 369 412 331 396 338z"/></svg>
