<svg class="icon" xmlns="http://www.w3.org/2000/svg" version="1" x="0" y="0" width="512" height="512" viewBox="0 0 512 512" enable-background="new 0 0 512 512" xml:space="preserve"><path d="M280 76c35-35 92-35 128 0s35 92 0 128c-25 25-53 26-60 27l-95-95C254 129 255 101 280 76zM240 165c0 0-138 171-138 171l45 45c0 0 172-137 172-138L240 165zM324 446c-24-37-48-61-85-61 -39 0-57 25-83 40 -18 11-35 6-43-5 -3-4-11-17 3-32l-22-21c-24 24-19 53-5 71 17 21 50 31 82 11 27-17 39-36 67-36 18 0 34 8 60 48L324 446z"/></svg>
