<svg class="icon" xmlns="http://www.w3.org/2000/svg" version="1" x="0" y="0" width="512" height="512" viewBox="0 0 512 512" enable-background="new 0 0 512 512" xml:space="preserve"><path d="M374 82c-9 0-18-4-24-10L328 50h-143l-22 22c-6 6-15 10-24 10H80V462h353V82H374zM392 422H119v-300h62l25 25H308l25-25H392V422zM153 229l9-8c11 5 17 9 29 17 22-25 37-38 64-55l3 7c-23 20-39 42-63 84C181 257 171 246 153 229zM153 336l9-8c11 5 17 9 29 17 22-25 37-38 64-55l3 7c-23 20-39 42-63 84C181 364 171 353 153 336zM358 221h-70v-20h70V221zM358 238h-70v20h70V238zM358 337h-70v-20h70V337zM358 355h-70v20h70V355z"/></svg>
