<svg class="icon" xmlns="http://www.w3.org/2000/svg" version="1.1" x="0" y="0" width="512" height="512" viewBox="0 0 512 512" enable-background="new 0 0 512 512" xml:space="preserve"><path d="M220.5 344.4c0 6.9-5.6 12.5-12.5 12.5 -6.9 0-12.5-5.6-12.5-12.5v-56.3c0-6.9 5.6-12.5 12.5-12.5 6.9 0 12.5 5.6 12.5 12.5V344.4zM269.5 344.4c0 6.9-5.6 12.5-12.5 12.5 -6.9 0-12.5-5.6-12.5-12.5v-56.3c0-6.9 5.6-12.5 12.5-12.5 6.9 0 12.5 5.6 12.5 12.5V344.4zM318.5 344.4c0 6.9-5.6 12.5-12.5 12.5 -6.9 0-12.5-5.6-12.5-12.5v-56.3c0-6.9 5.6-12.5 12.5-12.5 6.9 0 12.5 5.6 12.5 12.5V344.4zM126.8 189.1l92.1-92.1c6.8-6.8 17.9-6.8 24.8 0 6.8 6.8 6.8 17.9 0 24.7l-67.4 67.4H126.8zM335.8 189.1h49.5l-92.1-92.1c-6.8-6.8-17.9-6.8-24.7 0 -6.8 6.8-6.8 17.9 0 24.7L335.8 189.1zM391.5 253.8l-61.5 126.3H182.3l-61.8-126.3H391.5M462 213.8H50v40h11c9.2 0 17.5 5.2 21.6 13.5l74.7 152.8H355l74.4-152.8c4-8.3 12.4-13.5 21.6-13.5H462V213.8z"/></svg>
