<svg class="icon" xmlns="http://www.w3.org/2000/svg" version="1" x="0" y="0" width="512" height="512" viewBox="0 0 512 512" enable-background="new 0 0 512 512" xml:space="preserve"><path d="M197 296h-59v-59h59V296zM286 237h-59v59h59V237zM375 237h-59v59h59V237zM197 323h-59v59h59V323zM286 323h-59v59h59V323zM375 323h-59v59h59V323zM397 118c0 10-8 18-18 18s-18-8-18-18V72c0-10 8-18 18-18s18 8 18 18V118zM152 72c0-10-8-18-18-18 -10 0-18 8-18 18v46c0 10 8 18 18 18 10 0 18-8 18-18V72zM419 99v19c0 22-18 40-40 40 -22 0-40-18-40-40V99H174v19c0 22-18 40-40 40 -22 0-40-18-40-40V99H50v359h412v-359H419zM422 418H90V195h332V418z"/></svg>
